<?xml version="1.0" encoding="utf-8"?>
<!-- Generator: Adobe Illustrator 18.0.0, SVG Export Plug-In . SVG Version: 6.00 Build 0)  -->
<!DOCTYPE svg PUBLIC "-//W3C//DTD SVG 1.1//EN" "http://www.w3.org/Graphics/SVG/1.1/DTD/svg11.dtd">
<svg version="1.1" id="Capa_1" xmlns="http://www.w3.org/2000/svg" xmlns:xlink="http://www.w3.org/1999/xlink" x="0px" y="0px"
	 viewBox="0 0 1800 1200" enable-background="new 0 0 1800 1200" xml:space="preserve">
<g>
	<path fill="#FFFFFF" d="M471.4,300c75.4,0,137.8-56,148.3-128.6h837.4c11.9,0,21.4-9.6,21.4-21.4c0-11.8-9.6-21.4-21.4-21.4H619.7
		C609.3,56,546.8,0,471.4,0c-82.7,0-150,67.3-150,150S388.7,300,471.4,300z M471.4,42.9c59.1,0,107.1,48.1,107.1,107.1
		s-48.1,107.1-107.1,107.1S364.3,209.1,364.3,150S412.4,42.9,471.4,42.9z"/>
	<path fill="#FFFFFF" d="M1328.6,900c-75.4,0-137.8,56-148.3,128.6H342.9c-11.8,0-21.4,9.6-21.4,21.4c0,11.9,9.6,21.4,21.4,21.4
		h837.4c10.5,72.6,72.9,128.6,148.3,128.6c82.7,0,150-67.3,150-150S1411.3,900,1328.6,900z M1328.6,1157.1
		c-59.1,0-107.1-48.1-107.1-107.1c0-59.1,48.1-107.1,107.1-107.1c59.1,0,107.1,48.1,107.1,107.1
		C1435.7,1109.1,1387.7,1157.1,1328.6,1157.1z"/>
	<path fill="#FFFFFF" d="M1457.1,578.6h-399.3c-8.5-77.2-74-137.4-153.5-137.4s-145,60.3-153.4,137.4H342.9
		c-11.8,0-21.4,9.6-21.4,21.4s9.6,21.4,21.4,21.4h409.5C764.7,694.3,828.1,750,904.4,750s139.7-55.7,152.1-128.6h400.6
		c11.9,0,21.4-9.6,21.4-21.4S1469,578.6,1457.1,578.6z M904.4,707.1c-61.5,0-111.6-50.1-111.6-111.6S842.9,484,904.4,484
		S1016,534,1016,595.6S966,707.1,904.4,707.1z"/>
</g>
</svg>
