<?xml version="1.0" encoding="utf-8"?>
<!-- Generator: Adobe Illustrator 18.0.0, SVG Export Plug-In . SVG Version: 6.00 Build 0)  -->
<!DOCTYPE svg PUBLIC "-//W3C//DTD SVG 1.1//EN" "http://www.w3.org/Graphics/SVG/1.1/DTD/svg11.dtd">
<svg version="1.1" id="Capa_1" xmlns="http://www.w3.org/2000/svg" xmlns:xlink="http://www.w3.org/1999/xlink" x="0px" y="0px"
	 viewBox="0 0 612 612" enable-background="new 0 0 612 612" xml:space="preserve">
<g>
	<g>
		<path fill="#FFFFFF" d="M343,612h-74c-14.8,0-27-11.1-28.5-25.7l-7.6-45.4c-14.2-4.4-28.1-10.2-41.3-17.1l-38.1,27.2
			c-4.6,3.8-11,6.1-17.6,6.1c-7.6,0-14.8-3-20.2-8.4l-52.3-52.3c-10.4-10.4-11.3-26.9-1.9-38.4l26.8-37.5
			c-7-13.2-12.7-27.1-17.1-41.3l-46.1-7.7C11.1,370,0,357.8,0,343v-74c0-14.8,11.1-27,25.7-28.5l45.4-7.6
			c4.4-14.3,10.2-28.1,17.1-41.3l-27.2-38.1c-9-10.9-8.2-27.4,2.3-37.8l52.3-52.3c10.1-10.1,27.3-10.9,38.3-1.9l37.6,26.8
			c13.2-6.9,27-12.7,41.3-17.1l7.7-46.1C242,11.1,254.2,0,269,0h74c14.8,0,27,11.1,28.5,25.7l7.6,45.5c14.3,4.4,28.1,10.2,41.3,17.1
			l38.1-27.2c4.5-3.8,11-6.1,17.6-6.1c7.6,0,14.8,3,20.2,8.4l52.3,52.3c10.4,10.4,11.3,26.9,1.9,38.3l-26.8,37.5
			c7,13.2,12.7,27,17.1,41.3l46.1,7.7c14,1.4,25.1,13.6,25.1,28.4v74c0,14.8-11.1,27-25.8,28.4l-45.4,7.6
			c-4.4,14.3-10.2,28.1-17.1,41.3l27.2,38.1c9,10.9,8.1,27.4-2.3,37.8l-52.3,52.3c-10,10.1-27.3,10.9-38.4,1.9l-37.5-26.8
			c-13.2,7-27.1,12.7-41.3,17.1l-7.7,46.1C370,600.9,357.7,612,343,612z M190.9,501.6c1.7,0,3.4,0.4,4.9,1.3
			c15.4,8.6,31.8,15.4,48.8,20.2c3.8,1.1,6.6,4.2,7.2,8.1l8.7,52.3c0.5,4.9,4.2,8.2,8.4,8.2h74c4.3,0,7.9-3.3,8.3-7.5l8.8-53
			c0.6-3.9,3.5-7,7.2-8.1c16.9-4.8,33.3-11.6,48.8-20.2c3.4-1.9,7.6-1.7,10.8,0.6l43.2,30.9c4.4,3.5,8.8,2.8,11.8-0.2l52.3-52.3
			c3.1-3.1,3.3-7.9,0.6-11.2L503.5,427c-2.3-3.2-2.5-7.4-0.6-10.8c8.6-15.4,15.4-31.8,20.2-48.8c1.1-3.8,4.2-6.6,8.1-7.2l52.4-8.7
			c4.9-0.5,8.2-4.2,8.2-8.4v-74c0-4.3-3.3-7.9-7.5-8.3l-53-8.8c-3.9-0.6-7-3.5-8.1-7.2c-4.8-17-11.6-33.4-20.2-48.7
			c-1.9-3.4-1.7-7.6,0.6-10.8l30.9-43.2c3.1-3.9,2.9-8.7-0.2-11.7l-52.3-52.3c-2.9-2.9-8-3.2-11.2-0.6L427,108.5
			c-3.2,2.3-7.4,2.5-10.8,0.6c-15.4-8.6-31.8-15.4-48.8-20.2c-3.8-1.1-6.6-4.2-7.2-8.1l-8.7-52.3c-0.5-5-4.1-8.2-8.5-8.2h-74
			c-4.3,0-7.9,3.2-8.3,7.5l-8.8,53c-0.6,3.9-3.5,7-7.2,8.1c-17,4.8-33.4,11.6-48.8,20.2c-3.4,1.9-7.7,1.7-10.8-0.6l-43.2-30.9
			c-4.3-3.5-8.8-2.8-11.8,0.2l-52.3,52.3c-3.1,3.1-3.3,7.9-0.6,11.2l31.3,43.8c2.3,3.2,2.5,7.4,0.6,10.8
			c-8.6,15.3-15.4,31.7-20.2,48.8c-1.1,3.8-4.2,6.6-8.1,7.2l-52.3,8.7c-5,0.5-8.2,4.1-8.2,8.5v74c0,4.3,3.2,7.9,7.5,8.3l53,8.8
			c3.9,0.6,7,3.5,8.1,7.2c4.8,16.9,11.6,33.3,20.2,48.8c1.9,3.4,1.7,7.6-0.6,10.8l-30.9,43.2c-3.2,3.9-2.9,8.7,0.2,11.8l52.3,52.3
			c3,3,8,3.2,11.2,0.6l43.7-31.3C186.8,502.3,188.8,501.6,190.9,501.6z M306,427c-66.8,0-121.1-54.3-121.1-121.1
			c0-66.8,54.3-121.1,121.1-121.1c66.8,0,121.1,54.3,121.1,121.1C427.1,372.7,372.8,427,306,427z M306,205.1
			c-55.6,0-100.9,45.2-100.9,100.9c0,55.6,45.2,100.8,100.9,100.8c55.6,0,100.8-45.2,100.8-100.8C406.8,250.4,361.6,205.1,306,205.1
			z"/>
	</g>
</g>
</svg>
