<?xml version="1.0" encoding="utf-8"?>
<!-- Generator: Adobe Illustrator 18.0.0, SVG Export Plug-In . SVG Version: 6.00 Build 0)  -->
<!DOCTYPE svg PUBLIC "-//W3C//DTD SVG 1.1//EN" "http://www.w3.org/Graphics/SVG/1.1/DTD/svg11.dtd">
<svg version="1.1" id="Capa_1" xmlns="http://www.w3.org/2000/svg" xmlns:xlink="http://www.w3.org/1999/xlink" x="0px" y="0px"
	 viewBox="0 0 1800 1200" enable-background="new 0 0 1800 1200" xml:space="preserve">
<g id="Settings">
	<g>
		<path fill="#FFFFFF" d="M1496.2,533.4c-1.9-16.9-21.6-29.5-38.6-29.5c-55,0-103.8-32.3-124.2-82.2
			c-20.9-51.1-7.4-110.8,33.6-148.4c12.9-11.8,14.5-31.5,3.6-45.2c-28.1-35.7-60.1-68-95.1-96c-13.7-11-33.7-9.4-45.6,3.7
			c-35.8,39.6-100,54.3-149.6,33.6c-51.7-21.7-84.2-74.1-81-130.3c1-17.6-11.8-33-29.4-35c-44.8-5.2-90-5.3-135-0.4
			c-17.4,1.9-30.3,16.9-29.7,34.3c2,55.6-31,107.1-82.2,128c-49,20-112.8,5.4-148.5-33.8c-11.8-12.9-31.5-14.5-45.3-3.8
			c-36,28.2-68.7,60.5-97.1,96c-11.1,13.8-9.4,33.7,3.6,45.6c41.8,37.8,55.2,98,33.5,149.7c-20.7,49.3-71.9,81.1-130.6,81.1
			c-19-0.6-32.6,12.2-34.7,29.5c-5.3,45.1-5.3,91-0.3,136.5c1.9,16.9,22.2,29.5,39.3,29.5c52.2-1.3,102.4,31,123.5,82.2
			c21,51.1,7.5,110.7-33.5,148.4c-12.8,11.8-14.5,31.5-3.6,45.2c27.9,35.5,59.9,67.8,94.9,96c13.7,11.1,33.7,9.5,45.7-3.6
			c35.9-39.7,100.1-54.4,149.6-33.6c51.8,21.7,84.4,74,81.2,130.2c-1,17.7,11.9,33,29.4,35c22.9,2.7,46,4,69.1,4
			c22,0,43.9-1.2,65.9-3.6c17.4-1.9,30.3-16.9,29.7-34.4c-2-55.6,31-107,82.1-127.9c49.4-20.2,112.9-5.4,148.6,33.8
			c11.9,12.9,31.5,14.5,45.3,3.8c35.9-28.1,68.5-60.4,97.1-96c11.1-13.7,9.5-33.7-3.6-45.6c-41.8-37.8-55.3-98-33.6-149.7
			c20.4-48.7,69.7-81.3,122.7-81.3l7.4,0.2c17.2,1.4,33-11.9,35.1-29.4C1501.2,624.7,1501.3,578.8,1496.2,533.4z M900.9,801.4
			c-110.4,0-200.1-89.8-200.1-200.1c0-110.4,89.8-200.1,200.1-200.1c110.4,0,200.1,89.8,200.1,200.1
			C1101.1,711.6,1011.3,801.4,900.9,801.4z"/>
	</g>
</g>
</svg>
