<?xml version="1.0" encoding="utf-8"?>
<!-- Generator: Adobe Illustrator 18.0.0, SVG Export Plug-In . SVG Version: 6.00 Build 0)  -->
<!DOCTYPE svg PUBLIC "-//W3C//DTD SVG 1.1//EN" "http://www.w3.org/Graphics/SVG/1.1/DTD/svg11.dtd">
<svg version="1.1" id="Layer_1" xmlns="http://www.w3.org/2000/svg" xmlns:xlink="http://www.w3.org/1999/xlink" x="0px" y="0px"
	 viewBox="0 0 1800 1200" enable-background="new 0 0 1800 1200" xml:space="preserve">
<g>
	<g>
		<path fill="#FFFFFF" d="M1451.5,551.5H348.5c-26.8,0-48.5,21.7-48.5,48.5s21.7,48.5,48.5,48.5h1103.1c26.8,0,48.5-21.7,48.5-48.5
			C1500,573.2,1478.3,551.5,1451.5,551.5z"/>
	</g>
</g>
<g>
	<g>
		<path fill="#FFFFFF" d="M1451.5,183.8H348.5c-26.8,0-48.5,21.7-48.5,48.5c0,26.8,21.7,48.5,48.5,48.5h1103.1
			c26.8,0,48.5-21.7,48.5-48.5C1500,205.5,1478.3,183.8,1451.5,183.8z"/>
	</g>
</g>
<g>
	<g>
		<path fill="#FFFFFF" d="M1451.5,919.2H348.5c-26.8,0-48.5,21.7-48.5,48.5c0,26.8,21.7,48.5,48.5,48.5h1103.1
			c26.8,0,48.5-21.7,48.5-48.5C1500,940.9,1478.3,919.2,1451.5,919.2z"/>
	</g>
</g>
</svg>
